<svg xmlns="http://www.w3.org/2000/svg" version="1.1" viewBox="-5.0 -10.0 110.0 135.0">
 <g>
  <path d="m87.238 43.828h-6.0078v-0.47656h6.0078v-0.62109h-6.0078v-0.49219h6.0078v-0.61719h-6.0078v-0.48047h6.0078v-1.3398h-9.0078v5.3711h9.0078z"/>
  <path d="m75.129 33.148c-1.3398 0-2.4219 1.0781-2.4219 2.4219v13.98c0 1.3398 1.0781 2.4219 2.4219 2.4219 1.3398 0 2.4219-1.0781 2.4219-2.4219v-13.98c0-1.3398-1.082-2.4219-2.4219-2.4219zm-0.35938 1.75c0-0.17969 0.14062-0.32031 0.32031-0.32031 0.17969 0 0.32031 0.14062 0.32031 0.32031v6.3594c-0.10156-0.03125-0.21094-0.070312-0.32031-0.070312s-0.21875 0.03125-0.32031 0.070312zm0.65234 14.891c0 0.17969-0.14062 0.32031-0.32031 0.32031-0.17969 0-0.32031-0.14062-0.32031-0.32031v-6.5c0.10156 0.03125 0.21094 0.070313 0.32031 0.070313 0.10938 0 0.21875-0.03125 0.32031-0.070313zm-0.32031-6.75c-0.42187 0-0.76172-0.33984-0.76172-0.76172s0.33984-0.76172 0.76172-0.76172c0.42188 0 0.76172 0.33984 0.76172 0.76172-0.003906 0.42188-0.34375 0.76172-0.76172 0.76172z"/>
  <path d="m85.281 72.762v-1.0312h-2.1289l-0.003906-25.879h-1.1289v25.879h-2.1211v1.0312h-16.57c1.2109-0.83984 1.7109-2.4492 1.0898-3.8516l-3.9219-8.9219c-0.57812-1.3281-1.9883-2.0781-3.4219-1.8398l-9.2812 1.6094v-3.4102l-26.965 0.003906v8.8789h26.988v0.48047h-26.988v5.6797h26.973v-5.2383l7.9219-1.3711 2.9297 6.6719c0.23828 0.55078 0.62891 1 1.1016 1.3203l-14.652-0.003907v-1.3711h-1.1289v1.3711h-19.301v-1.3711h-1.1289v1.3711h-15.543v1.1289h84v-1.1289h-6.7188z"/>
  <path d="m20.828 55.859h26.969v-3.2617h0.42188c1.1211 0 2.0508-0.76953 2.3281-1.8008h20.531v-0.14844h-20.477c0.03125-0.14844 0.050782-0.30859 0.050782-0.46875 0-0.53906-0.17969-1.0391-0.48828-1.4414h20.93l-0.003906-0.13672h-21.051c-0.44141-0.51172-1.0898-0.82812-1.8086-0.82812h-5.0391v-1.0781h27.91v-0.14844l-27.922-0.007813v-1.9102h27.91v-0.14844h-27.91v-1.9102h27.91v-0.14844h-27.91v-1.9219h27.91v-0.14844h-26.09l0.64062-1.9102h25.449v-0.14844h-25.398l0.64062-1.9102h24.762v-0.14844l-24.715-0.003906 0.64062-1.9102h24.07v-0.14844h-24.02l1.5703-4.6914-4.8594-3.3711-8.9609 7.2812 1.1289 0.78125h-27.828v0.14844h28.039l2.7617 1.9102h-30.801v0.14844h31.012l2.7617 1.9102h-33.773v0.14844h33.941v1.9102l-11.832 0.003906c-0.83984-0.78906-1.9492-1.2812-3.1914-1.2812-0.10156 0-0.19141 0.019532-0.28125 0.03125v-0.03125h-13.301l3.0586 1.2812h-8.3945v0.14844h8.7695l2.2305 0.92969-2.8516 0.92187 0.14062 0.058594h-8.2891v0.14844h8.6094l3.7695 1.7305-0.39844 0.17969h-11.98v0.14844h11.66l-3.8203 1.7695h7.25c0.03125 0.050781 0.070312 0.089843 0.10937 0.14062l-15.199 0.003906v0.14844h15.32c0.44141 0.53906 1 0.96094 1.6289 1.2617v0.66016h-16.949v0.14844h16.941v1.4414h-4.2305v0.46875h-12.711v0.14844h12.719v5.0508zm22.352-16.68 1.6914 1.1719h-1.6914zm-1.1289 7.3516h-11.289c0.42188-0.55859 0.71875-1.1992 0.85938-1.9102h10.43zm0-2.0625h-10.422c0.039063-0.23828 0.070313-0.48047 0.070313-0.73047 0-0.41016-0.070313-0.80078-0.17188-1.1797h10.512v1.9102zm0-3.9688v1.9102h-10.562c-0.21875-0.73047-0.58984-1.3789-1.1016-1.9102zm-11.41 6.1797h11.422v1.0781l-12.691 0.003907c0.48047-0.28125 0.91016-0.64062 1.2695-1.082zm-2.5703-4.1602h1.4492c0.14844 0 0.26953 0.12109 0.26953 0.26953 0 0.14844-0.12109 0.26953-0.26953 0.26953h-1.4492c-0.14844 0-0.26953-0.12109-0.26953-0.26953 0-0.14844 0.12109-0.26953 0.26953-0.26953z"/>
 </g>
<text x="0.0" y="117.5" font-size="5.0" font-weight="bold" font-family="Arbeit Regular, Helvetica, Arial-Unicode, Arial, Sans-serif" fill="#000000">Created by Hernan Berdichevsky</text><text x="0.0" y="122.5" font-size="5.0" font-weight="bold" font-family="Arbeit Regular, Helvetica, Arial-Unicode, Arial, Sans-serif" fill="#000000">from Noun Project</text></svg>